<svg width="11" height="7" viewBox="0 0 11 7" fill="none" xmlns="http://www.w3.org/2000/svg">
<path fill-rule="evenodd" clip-rule="evenodd" d="M6.81821 0.198905C7.12257 -0.0820492 7.59707 -0.0630722 7.87802 0.241292L10.3011 2.86626C10.5663 3.15356 10.5663 3.59638 10.3011 3.88368L7.87802 6.50871C7.59707 6.81308 7.12258 6.83206 6.81821 6.55111C6.51385 6.27016 6.49486 5.79566 6.77582 5.4913L8.03702 4.12498L0.749999 4.12498C0.335786 4.12498 -5.73116e-07 3.78919 -5.90099e-07 3.37498C-6.07083e-07 2.96076 0.335786 2.62498 0.75 2.62498L8.037 2.62498L6.77582 1.25872C6.49487 0.954354 6.51384 0.47986 6.81821 0.198905Z" fill="#23262F"/>
</svg>
