<svg width="144" height="46" viewBox="0 0 144 46" fill="none" xmlns="http://www.w3.org/2000/svg">
<path d="M59.886 15.644C61.4993 15.644 62.9147 15.9593 64.132 16.59C65.364 17.2207 66.31 18.1227 66.97 19.296C67.6447 20.4547 67.982 21.804 67.982 23.344C67.982 24.884 67.6447 26.2333 66.97 27.392C66.31 28.536 65.364 29.4233 64.132 30.054C62.9147 30.6847 61.4993 31 59.886 31H54.518V15.644H59.886ZM59.776 28.382C61.3893 28.382 62.636 27.942 63.516 27.062C64.396 26.182 64.836 24.9427 64.836 23.344C64.836 21.7453 64.396 20.4987 63.516 19.604C62.636 18.6947 61.3893 18.24 59.776 18.24H57.598V28.382H59.776ZM71.8495 17.36C71.3069 17.36 70.8522 17.1913 70.4855 16.854C70.1335 16.502 69.9575 16.0693 69.9575 15.556C69.9575 15.0427 70.1335 14.6173 70.4855 14.28C70.8522 13.928 71.3069 13.752 71.8495 13.752C72.3922 13.752 72.8395 13.928 73.1915 14.28C73.5582 14.6173 73.7415 15.0427 73.7415 15.556C73.7415 16.0693 73.5582 16.502 73.1915 16.854C72.8395 17.1913 72.3922 17.36 71.8495 17.36ZM73.3675 18.812V31H70.2875V18.812H73.3675ZM81.4926 28.162L84.5726 18.812H87.8506L83.3406 31H79.6006L75.1126 18.812H78.4126L81.4926 28.162ZM100.911 24.642C100.911 25.082 100.881 25.478 100.823 25.83H91.9125C91.9858 26.71 92.2938 27.3993 92.8365 27.898C93.3792 28.3967 94.0465 28.646 94.8385 28.646C95.9825 28.646 96.7965 28.1547 97.2805 27.172H100.603C100.251 28.3453 99.5758 29.3133 98.5785 30.076C97.5812 30.824 96.3565 31.198 94.9045 31.198C93.7312 31.198 92.6752 30.9413 91.7365 30.428C90.8125 29.9 90.0865 29.1593 89.5585 28.206C89.0452 27.2527 88.7885 26.1527 88.7885 24.906C88.7885 23.6447 89.0452 22.5373 89.5585 21.584C90.0718 20.6307 90.7905 19.8973 91.7145 19.384C92.6385 18.8707 93.7018 18.614 94.9045 18.614C96.0632 18.614 97.0972 18.8633 98.0065 19.362C98.9305 19.8607 99.6418 20.572 100.141 21.496C100.654 22.4053 100.911 23.454 100.911 24.642ZM97.7205 23.762C97.7058 22.97 97.4198 22.3393 96.8625 21.87C96.3052 21.386 95.6232 21.144 94.8165 21.144C94.0538 21.144 93.4085 21.3787 92.8805 21.848C92.3672 22.3027 92.0518 22.9407 91.9345 23.762H97.7205ZM108.461 31.154C107.39 31.154 106.422 30.9707 105.557 30.604C104.706 30.2373 104.031 29.7093 103.533 29.02C103.034 28.3307 102.777 27.5167 102.763 26.578H106.063C106.107 27.2087 106.327 27.7073 106.723 28.074C107.133 28.4407 107.691 28.624 108.395 28.624C109.113 28.624 109.678 28.4553 110.089 28.118C110.499 27.766 110.705 27.3113 110.705 26.754C110.705 26.2993 110.565 25.9253 110.287 25.632C110.008 25.3387 109.656 25.1113 109.231 24.95C108.82 24.774 108.248 24.5833 107.515 24.378C106.517 24.0847 105.703 23.7987 105.073 23.52C104.457 23.2267 103.921 22.794 103.467 22.222C103.027 21.6353 102.807 20.858 102.807 19.89C102.807 18.9807 103.034 18.1887 103.489 17.514C103.943 16.8393 104.581 16.326 105.403 15.974C106.224 15.6073 107.163 15.424 108.219 15.424C109.803 15.424 111.086 15.8127 112.069 16.59C113.066 17.3527 113.616 18.4233 113.719 19.802H110.331C110.301 19.274 110.074 18.8413 109.649 18.504C109.238 18.152 108.688 17.976 107.999 17.976C107.397 17.976 106.913 18.13 106.547 18.438C106.195 18.746 106.019 19.1933 106.019 19.78C106.019 20.1907 106.151 20.5353 106.415 20.814C106.693 21.078 107.031 21.298 107.427 21.474C107.837 21.6353 108.409 21.826 109.143 22.046C110.14 22.3393 110.954 22.6327 111.585 22.926C112.215 23.2193 112.758 23.6593 113.213 24.246C113.667 24.8327 113.895 25.6027 113.895 26.556C113.895 27.3773 113.682 28.14 113.257 28.844C112.831 29.548 112.208 30.1127 111.387 30.538C110.565 30.9487 109.59 31.154 108.461 31.154ZM127.895 24.642C127.895 25.082 127.866 25.478 127.807 25.83H118.897C118.97 26.71 119.278 27.3993 119.821 27.898C120.364 28.3967 121.031 28.646 121.823 28.646C122.967 28.646 123.781 28.1547 124.265 27.172H127.587C127.235 28.3453 126.56 29.3133 125.563 30.076C124.566 30.824 123.341 31.198 121.889 31.198C120.716 31.198 119.66 30.9413 118.721 30.428C117.797 29.9 117.071 29.1593 116.543 28.206C116.03 27.2527 115.773 26.1527 115.773 24.906C115.773 23.6447 116.03 22.5373 116.543 21.584C117.056 20.6307 117.775 19.8973 118.699 19.384C119.623 18.8707 120.686 18.614 121.889 18.614C123.048 18.614 124.082 18.8633 124.991 19.362C125.915 19.8607 126.626 20.572 127.125 21.496C127.638 22.4053 127.895 23.454 127.895 24.642ZM124.705 23.762C124.69 22.97 124.404 22.3393 123.847 21.87C123.29 21.386 122.608 21.144 121.801 21.144C121.038 21.144 120.393 21.3787 119.865 21.848C119.352 22.3027 119.036 22.9407 118.919 23.762H124.705ZM129.351 24.862C129.351 23.63 129.593 22.5373 130.077 21.584C130.576 20.6307 131.243 19.8973 132.079 19.384C132.93 18.8707 133.876 18.614 134.917 18.614C135.826 18.614 136.618 18.7973 137.293 19.164C137.982 19.5307 138.532 19.9927 138.943 20.55V18.812H142.045V31H138.943V29.218C138.547 29.79 137.997 30.2667 137.293 30.648C136.604 31.0147 135.804 31.198 134.895 31.198C133.868 31.198 132.93 30.934 132.079 30.406C131.243 29.878 130.576 29.1373 130.077 28.184C129.593 27.216 129.351 26.1087 129.351 24.862ZM138.943 24.906C138.943 24.158 138.796 23.52 138.503 22.992C138.21 22.4493 137.814 22.0387 137.315 21.76C136.816 21.4667 136.281 21.32 135.709 21.32C135.137 21.32 134.609 21.4593 134.125 21.738C133.641 22.0167 133.245 22.4273 132.937 22.97C132.644 23.498 132.497 24.1287 132.497 24.862C132.497 25.5953 132.644 26.2407 132.937 26.798C133.245 27.3407 133.641 27.7587 134.125 28.052C134.624 28.3453 135.152 28.492 135.709 28.492C136.281 28.492 136.816 28.3527 137.315 28.074C137.814 27.7807 138.21 27.37 138.503 26.842C138.796 26.2993 138.943 25.654 138.943 24.906Z" fill="black"/>
<path d="M40.7288 31.3554C39.0422 31.3554 38.2947 30.7037 37.2405 29.7837C36.0713 28.787 34.6147 27.522 31.8738 27.522C29.1138 27.522 27.6763 28.787 26.5071 29.7837C25.453 30.7037 24.6863 31.3554 22.9997 31.3554C21.3322 31.3554 20.5655 30.7037 19.5113 29.7837C18.3422 28.787 16.8855 27.522 14.1447 27.522C11.3847 27.522 9.92802 28.787 8.75885 29.7837C7.70469 30.7037 6.95717 31.3554 5.27051 31.3554C4.48467 31.3554 3.83301 32.007 3.83301 32.7929C3.83301 33.5979 4.48467 34.2304 5.27051 34.2304C8.03051 34.2304 9.46798 32.9845 10.6372 31.9687C11.6913 31.0487 12.458 30.397 14.1447 30.397C15.8314 30.397 16.5789 31.0487 17.633 31.9687C18.8022 32.9845 20.2588 34.2304 22.9997 34.2304C25.7597 34.2304 27.2163 32.9845 28.3855 31.9687C29.4397 31.0487 30.1872 30.397 31.8738 30.397C33.5413 30.397 34.308 31.0487 35.3622 31.9687C36.5314 32.9845 37.988 34.2304 40.7288 34.2304C41.5147 34.2304 42.1663 33.5979 42.1663 32.7929C42.1663 32.007 41.5147 31.3554 40.7288 31.3554Z" fill="black"/>
<path d="M40.7288 23.4603C39.0422 23.4603 38.2947 22.7895 37.2405 21.8887C36.0713 20.8728 34.6147 19.627 31.8738 19.627C29.1138 19.627 27.6763 20.8728 26.5071 21.8887C25.453 22.7895 24.6863 23.4603 22.9997 23.4603C21.3322 23.4603 20.5655 22.7895 19.5113 21.8887C18.3422 20.8728 16.8855 19.627 14.1447 19.627C11.3847 19.627 9.92802 20.8728 8.75885 21.8887C7.70469 22.7895 6.95717 23.4603 5.27051 23.4603C4.48467 23.4603 3.83301 24.0928 3.83301 24.8978C3.83301 25.6837 4.48467 26.3353 5.27051 26.3353C8.03051 26.3353 9.46798 25.0703 10.6372 24.0545C11.6913 23.1537 12.458 22.502 14.1447 22.502C15.8314 22.502 16.5789 23.1537 17.633 24.0545C18.8022 25.0703 20.2588 26.3353 22.9997 26.3353C25.7597 26.3353 27.2163 25.0703 28.3855 24.0545C29.4397 23.1537 30.1872 22.502 31.8738 22.502C33.5413 22.502 34.308 23.1537 35.3622 24.0545C36.5314 25.0703 37.988 26.3353 40.7288 26.3353C41.5147 26.3353 42.1663 25.6837 42.1663 24.8978C42.1663 24.0928 41.5147 23.4603 40.7288 23.4603Z" fill="black"/>
<path d="M5.27051 18.4762C8.03051 18.4762 9.46798 17.2112 10.6372 16.2146C11.6913 15.2946 12.458 14.6429 14.1447 14.6429C15.8313 14.6429 16.5789 15.2946 17.633 16.2146C18.8022 17.2112 20.2588 18.4762 22.9997 18.4762C25.7597 18.4762 27.2163 17.2112 28.3855 16.2146C29.4397 15.2946 30.1872 14.6429 31.8738 14.6429C33.5413 14.6429 34.308 15.2946 35.3622 16.2146C36.5314 17.2112 37.988 18.4762 40.7288 18.4762C41.5147 18.4762 42.1663 17.8246 42.1663 17.0387C42.1663 16.2337 41.5147 15.6012 40.7288 15.6012C39.0422 15.6012 38.2947 14.9496 37.2405 14.0296C36.0713 13.0137 34.6147 11.7679 31.8738 11.7679C29.1138 11.7679 27.6763 13.0137 26.5071 14.0296C25.453 14.9496 24.6863 15.6012 22.9997 15.6012C21.3322 15.6012 20.5655 14.9496 19.5113 14.0296C18.3422 13.0137 16.8855 11.7679 14.1447 11.7679C11.3847 11.7679 9.92802 13.0137 8.75885 14.0296C7.70469 14.9496 6.95717 15.6012 5.27051 15.6012C4.48467 15.6012 3.83301 16.2337 3.83301 17.0387C3.83301 17.8246 4.48467 18.4762 5.27051 18.4762Z" fill="black"/>
</svg>
