<svg width="24" height="24" viewBox="0 0 24 24" fill="none" xmlns="http://www.w3.org/2000/svg">
<path fill-rule="evenodd" clip-rule="evenodd" d="M22 14.2599V22H17.6874V14.7684C17.6874 12.9605 17.0944 11.7175 15.5311 11.7175C14.3452 11.7175 13.6444 12.565 13.3209 13.3559C13.2131 13.6384 13.1592 14.0339 13.1592 14.4294V22H8.84666C8.84666 22 8.90057 9.74012 8.84666 8.49719H13.1592V10.4181C13.1592 10.4181 13.1592 10.4746 13.1053 10.4746H13.1592V10.4181C13.7522 9.51414 14.7225 8.1582 17.0405 8.1582C19.8437 8.1582 22 10.1356 22 14.2599ZM4.42582 2C2.97033 2 2 3.01695 2 4.31639C2 5.61581 2.91642 6.63278 4.37191 6.63278H4.42582C5.93522 6.63278 6.85164 5.61582 6.85164 4.31639C6.79774 3.01695 5.88131 2 4.42582 2ZM2.21604 22H6.47471V8.49719H2.21604V22Z" fill="#535353"/>
</svg>
