<svg width="199" height="65" viewBox="0 0 199 65" fill="none" xmlns="http://www.w3.org/2000/svg">
<path d="M84.39 22.06C86.59 22.06 88.52 22.49 90.18 23.35C91.86 24.21 93.15 25.44 94.05 27.04C94.97 28.62 95.43 30.46 95.43 32.56C95.43 34.66 94.97 36.5 94.05 38.08C93.15 39.64 91.86 40.85 90.18 41.71C88.52 42.57 86.59 43 84.39 43H77.07V22.06H84.39ZM84.24 39.43C86.44 39.43 88.14 38.83 89.34 37.63C90.54 36.43 91.14 34.74 91.14 32.56C91.14 30.38 90.54 28.68 89.34 27.46C88.14 26.22 86.44 25.6 84.24 25.6H81.27V39.43H84.24ZM100.704 24.4C99.9639 24.4 99.3439 24.17 98.8439 23.71C98.3639 23.23 98.1239 22.64 98.1239 21.94C98.1239 21.24 98.3639 20.66 98.8439 20.2C99.3439 19.72 99.9639 19.48 100.704 19.48C101.444 19.48 102.054 19.72 102.534 20.2C103.034 20.66 103.284 21.24 103.284 21.94C103.284 22.64 103.034 23.23 102.534 23.71C102.054 24.17 101.444 24.4 100.704 24.4ZM102.774 26.38V43H98.5739V26.38H102.774ZM113.854 39.13L118.054 26.38H122.524L116.374 43H111.274L105.154 26.38H109.654L113.854 39.13ZM140.333 34.33C140.333 34.93 140.293 35.47 140.213 35.95H128.063C128.163 37.15 128.583 38.09 129.323 38.77C130.063 39.45 130.973 39.79 132.053 39.79C133.613 39.79 134.723 39.12 135.383 37.78H139.913C139.433 39.38 138.513 40.7 137.153 41.74C135.793 42.76 134.123 43.27 132.143 43.27C130.543 43.27 129.103 42.92 127.823 42.22C126.563 41.5 125.573 40.49 124.853 39.19C124.153 37.89 123.802 36.39 123.802 34.69C123.802 32.97 124.153 31.46 124.853 30.16C125.553 28.86 126.533 27.86 127.793 27.16C129.053 26.46 130.503 26.11 132.143 26.11C133.723 26.11 135.133 26.45 136.373 27.13C137.633 27.81 138.603 28.78 139.283 30.04C139.983 31.28 140.333 32.71 140.333 34.33ZM135.983 33.13C135.963 32.05 135.573 31.19 134.813 30.55C134.053 29.89 133.123 29.56 132.023 29.56C130.983 29.56 130.103 29.88 129.383 30.52C128.683 31.14 128.253 32.01 128.093 33.13H135.983ZM150.628 43.21C149.168 43.21 147.848 42.96 146.668 42.46C145.508 41.96 144.588 41.24 143.908 40.3C143.228 39.36 142.878 38.25 142.858 36.97H147.358C147.418 37.83 147.718 38.51 148.258 39.01C148.818 39.51 149.578 39.76 150.538 39.76C151.518 39.76 152.288 39.53 152.848 39.07C153.408 38.59 153.688 37.97 153.688 37.21C153.688 36.59 153.498 36.08 153.118 35.68C152.738 35.28 152.258 34.97 151.678 34.75C151.118 34.51 150.338 34.25 149.338 33.97C147.978 33.57 146.868 33.18 146.008 32.8C145.168 32.4 144.438 31.81 143.818 31.03C143.218 30.23 142.918 29.17 142.918 27.85C142.918 26.61 143.228 25.53 143.848 24.61C144.468 23.69 145.338 22.99 146.458 22.51C147.578 22.01 148.858 21.76 150.298 21.76C152.458 21.76 154.208 22.29 155.548 23.35C156.908 24.39 157.658 25.85 157.798 27.73H153.178C153.138 27.01 152.828 26.42 152.248 25.96C151.688 25.48 150.938 25.24 149.998 25.24C149.178 25.24 148.518 25.45 148.018 25.87C147.538 26.29 147.298 26.9 147.298 27.7C147.298 28.26 147.478 28.73 147.838 29.11C148.218 29.47 148.678 29.77 149.218 30.01C149.778 30.23 150.558 30.49 151.558 30.79C152.918 31.19 154.028 31.59 154.888 31.99C155.748 32.39 156.488 32.99 157.108 33.79C157.728 34.59 158.038 35.64 158.038 36.94C158.038 38.06 157.748 39.1 157.168 40.06C156.588 41.02 155.738 41.79 154.618 42.37C153.498 42.93 152.168 43.21 150.628 43.21ZM177.129 34.33C177.129 34.93 177.089 35.47 177.009 35.95H164.859C164.959 37.15 165.379 38.09 166.119 38.77C166.859 39.45 167.769 39.79 168.849 39.79C170.409 39.79 171.519 39.12 172.179 37.78H176.709C176.229 39.38 175.309 40.7 173.949 41.74C172.589 42.76 170.919 43.27 168.939 43.27C167.339 43.27 165.899 42.92 164.619 42.22C163.359 41.5 162.369 40.49 161.649 39.19C160.949 37.89 160.599 36.39 160.599 34.69C160.599 32.97 160.949 31.46 161.649 30.16C162.349 28.86 163.329 27.86 164.589 27.16C165.849 26.46 167.299 26.11 168.939 26.11C170.519 26.11 171.929 26.45 173.169 27.13C174.429 27.81 175.399 28.78 176.079 30.04C176.779 31.28 177.129 32.71 177.129 34.33ZM172.779 33.13C172.759 32.05 172.369 31.19 171.609 30.55C170.849 29.89 169.919 29.56 168.819 29.56C167.779 29.56 166.899 29.88 166.179 30.52C165.479 31.14 165.049 32.01 164.889 33.13H172.779ZM179.115 34.63C179.115 32.95 179.445 31.46 180.105 30.16C180.785 28.86 181.695 27.86 182.835 27.16C183.995 26.46 185.285 26.11 186.705 26.11C187.945 26.11 189.025 26.36 189.945 26.86C190.885 27.36 191.635 27.99 192.195 28.75V26.38H196.425V43H192.195V40.57C191.655 41.35 190.905 42 189.945 42.52C189.005 43.02 187.915 43.27 186.675 43.27C185.275 43.27 183.995 42.91 182.835 42.19C181.695 41.47 180.785 40.46 180.105 39.16C179.445 37.84 179.115 36.33 179.115 34.63ZM192.195 34.69C192.195 33.67 191.995 32.8 191.595 32.08C191.195 31.34 190.655 30.78 189.975 30.4C189.295 30 188.565 29.8 187.785 29.8C187.005 29.8 186.285 29.99 185.625 30.37C184.965 30.75 184.425 31.31 184.005 32.05C183.605 32.77 183.405 33.63 183.405 34.63C183.405 35.63 183.605 36.51 184.005 37.27C184.425 38.01 184.965 38.58 185.625 38.98C186.305 39.38 187.025 39.58 187.785 39.58C188.565 39.58 189.295 39.39 189.975 39.01C190.655 38.61 191.195 38.05 191.595 37.33C191.995 36.59 192.195 35.71 192.195 34.69Z" fill="white"/>
<path d="M57.5514 44.3078C55.1681 44.3078 54.1118 43.3869 52.6222 42.0869C50.9702 40.6786 48.9119 38.8911 45.0389 38.8911C41.1389 38.8911 39.1076 40.6786 37.4556 42.0869C35.966 43.3869 34.8827 44.3078 32.4993 44.3078C30.1431 44.3078 29.0597 43.3869 27.5702 42.0869C25.9181 40.6786 23.8598 38.8911 19.9869 38.8911C16.0869 38.8911 14.0285 40.6786 12.3765 42.0869C10.8869 43.3869 9.8306 44.3078 7.44727 44.3078C6.33685 44.3078 5.41602 45.2286 5.41602 46.339C5.41602 47.4765 6.33685 48.3703 7.44727 48.3703C11.3473 48.3703 13.3785 46.6099 15.0306 45.1744C16.5201 43.8744 17.6035 42.9536 19.9869 42.9536C22.3702 42.9536 23.4265 43.8744 24.916 45.1744C26.5681 46.6099 28.6264 48.3703 32.4993 48.3703C36.3993 48.3703 38.4577 46.6099 40.1098 45.1744C41.5993 43.8744 42.6556 42.9536 45.0389 42.9536C47.3952 42.9536 48.4785 43.8744 49.9681 45.1744C51.6202 46.6099 53.6785 48.3703 57.5514 48.3703C58.6618 48.3703 59.5827 47.4765 59.5827 46.339C59.5827 45.2286 58.6618 44.3078 57.5514 44.3078Z" fill="white"/>
<path d="M57.5514 33.1504C55.1681 33.1504 54.1118 32.2025 52.6222 30.9296C50.9702 29.4942 48.9119 27.7338 45.0389 27.7338C41.1389 27.7338 39.1076 29.4942 37.4556 30.9296C35.966 32.2025 34.8827 33.1504 32.4993 33.1504C30.1431 33.1504 29.0597 32.2025 27.5702 30.9296C25.9181 29.4942 23.8598 27.7338 19.9869 27.7338C16.0869 27.7338 14.0285 29.4942 12.3765 30.9296C10.8869 32.2025 9.8306 33.1504 7.44727 33.1504C6.33685 33.1504 5.41602 34.0442 5.41602 35.1817C5.41602 36.2921 6.33685 37.2129 7.44727 37.2129C11.3473 37.2129 13.3785 35.4254 15.0306 33.99C16.5201 32.7171 17.6035 31.7963 19.9869 31.7963C22.3702 31.7963 23.4265 32.7171 24.916 33.99C26.5681 35.4254 28.6264 37.2129 32.4993 37.2129C36.3993 37.2129 38.4577 35.4254 40.1098 33.99C41.5993 32.7171 42.6556 31.7963 45.0389 31.7963C47.3952 31.7963 48.4785 32.7171 49.9681 33.99C51.6202 35.4254 53.6785 37.2129 57.5514 37.2129C58.6618 37.2129 59.5827 36.2921 59.5827 35.1817C59.5827 34.0442 58.6618 33.1504 57.5514 33.1504Z" fill="white"/>
<path d="M7.44727 26.1087C11.3473 26.1087 13.3785 24.3212 15.0306 22.9129C16.5201 21.6129 17.6035 20.692 19.9869 20.692C22.3702 20.692 23.4265 21.6129 24.916 22.9129C26.5681 24.3212 28.6264 26.1087 32.4993 26.1087C36.3993 26.1087 38.4577 24.3212 40.1098 22.9129C41.5993 21.6129 42.6556 20.692 45.0389 20.692C47.3952 20.692 48.4785 21.6129 49.9681 22.9129C51.6202 24.3212 53.6785 26.1087 57.5514 26.1087C58.6618 26.1087 59.5827 25.1879 59.5827 24.0774C59.5827 22.9399 58.6618 22.0462 57.5514 22.0462C55.1681 22.0462 54.1118 21.1254 52.6222 19.8254C50.9702 18.3899 48.9119 16.6295 45.0389 16.6295C41.1389 16.6295 39.1076 18.3899 37.4556 19.8254C35.966 21.1254 34.8827 22.0462 32.4993 22.0462C30.1431 22.0462 29.0597 21.1254 27.5702 19.8254C25.9181 18.3899 23.8598 16.6295 19.9869 16.6295C16.0869 16.6295 14.0285 18.3899 12.3765 19.8254C10.8869 21.1254 9.8306 22.0462 7.44727 22.0462C6.33685 22.0462 5.41602 22.9399 5.41602 24.0774C5.41602 25.1879 6.33685 26.1087 7.44727 26.1087Z" fill="white"/>
</svg>
